<svg width="428" height="390" viewBox="0 0 428 390" fill="none" xmlns="http://www.w3.org/2000/svg">
<path fill-rule="evenodd" clip-rule="evenodd" d="M39.2827 134.11C59.9402 56.8769 130.403 0 214.15 0C297.897 0 368.36 56.8769 389.017 134.11H413C416.978 134.11 420.794 135.69 423.607 138.503C426.42 141.316 428 145.132 428 149.11V179.11C428 179.336 427.982 179.56 427.965 179.782C427.947 180.002 427.93 180.221 427.93 180.44C425.1 296.17 330.4 389.11 214 389.11C95.81 389.11 0 293.3 0 175.11C0 171.52 0.12 168 0.29 164.41V149.11C0.29 145.132 1.87035 141.316 4.6834 138.503C7.49644 135.69 11.3118 134.11 15.29 134.11H39.2827ZM60.0849 134.11C80.1604 68.0635 141.542 20 214.15 20C286.758 20 348.14 68.0635 368.215 134.11H60.0849Z" fill="#2680eb"/>
</svg>
