<svg width="100" height="100" viewBox="0 0 100 100" fill="none" xmlns="http://www.w3.org/2000/svg">
<path fill-rule="evenodd" clip-rule="evenodd" d="M50.2943 99.2116C77.6324 99.2116 99.7943 77.0497 99.7943 49.7116C99.7943 22.3735 77.6324 0.211586 50.2943 0.211586C22.9562 0.211586 0.794312 22.3735 0.794312 49.7116C0.794312 77.0497 22.9562 99.2116 50.2943 99.2116ZM50.3179 19.0815C37.1331 19.0815 26.0397 28.036 22.7874 40.1953H19.01C18.3837 40.1953 17.7831 40.4441 17.3402 40.887C16.8973 41.3299 16.6485 41.9305 16.6485 42.5569V44.9656C16.6217 45.5308 16.6028 46.085 16.6028 46.6502C16.6028 65.2577 31.6869 80.3417 50.2943 80.3417C68.62 80.3417 83.5292 65.7095 83.9748 47.4894C83.9748 47.4549 83.9775 47.4205 83.9802 47.3858C83.9818 47.3667 83.9833 47.3476 83.9843 47.3283C83.9852 47.3123 83.9858 47.2962 83.9858 47.28V42.5569C83.9858 41.9305 83.737 41.3299 83.2941 40.887C82.8513 40.4441 82.2506 40.1953 81.6243 40.1953H77.8484C74.5963 28.036 63.5029 19.0815 50.3179 19.0815ZM50.3179 22.2302C38.8868 22.2302 29.2231 29.7972 26.0624 40.1953H74.5735C71.4128 29.7972 61.7491 22.2302 50.3179 22.2302Z" fill="#0D78F2"/>
</svg>
